<svg viewBox="0 0 792 132.51" version="1.1" xmlns="http://www.w3.org/2000/svg">
  
  <g>
    <g id="Layer_1">
      <g>
        <path d="M738.45,35.39v-8.59h-46.09v81.08h46.09v-8.6h-37.61v-30.17h28.5v-8.38h-28.5v-25.34h37.61Z"></path>
        <path d="M622.1,93.99l-23.72-67.19h-9.21l28.93,81.08h7.99l28.94-81.08h-9.21l-23.71,67.2h-.01Z"></path>
        <path d="M549.67,26.8h-8.78v81.08h8.78V26.8Z"></path>
        <path d="M444.3,35.39h24.19v72.48h8.67V35.39h24.2v-8.59h-57.07v8.6h0Z"></path>
        <path d="M163.31,107.88h48.3v-8.6h-39.4v-30.17h29.86v-8.38h-29.86v-25.34h39.4v-8.59h-48.3v81.08Z"></path>
        <path d="M106.62,93.1L62.68,27.51l-.5-.71h-8.63v81.08h8.38V41.59l44.22,66.3h8.86V26.8h-8.39v66.31h0Z"></path>
        <path d="M318.92,67.14h-35.44v8.12h27.19c-.86,14.13-11.85,24.28-26.51,24.28h-.51c-7.07,0-13.77-2.8-18.87-7.87-6.32-6.3-9.71-15.32-9.56-25.44-.15-10.1,3.24-19.12,9.56-25.42,5.1-5.08,11.82-7.87,18.97-7.87h.43c12.4,0,22.32,7.65,25.91,19.94l.21.7h8.58l-.41-1.8c-3.66-16.26-17.43-27.17-34.25-27.17h-.49c-9.38,0-18.23,3.68-24.94,10.37-7.81,7.81-12.21,19.21-12.05,31.27-.16,12.06,4.24,23.48,12.05,31.28,6.71,6.68,15.52,10.37,24.87,10.37h.56c11.53,0,21.23-4.79,27.42-12.63v12.63h7.54v-40.62h-.24v-.13Z"></path>
        <path d="M413.68,107.88h8.98l-29.43-81.28h-7.29l-29.72,81.27h8.98l9.28-25.28h30.13l9.06,25.28h.02ZM389.61,41.06l10.26,28.45,1.7,4.65h-24.03l1.69-4.65,10.39-28.45Z"></path>
      </g>
    </g>
  </g>
</svg>